<svg width="46" height="46" viewBox="0 0 46 46" fill="none" xmlns="http://www.w3.org/2000/svg">
<path d="M41.8121 18.801H27.1854V4.18836C27.1854 1.87534 25.3189 0 23.0056 0C20.6922 0 18.8268 1.87534 18.8268 4.18937V18.8111H4.19297C1.87964 18.8111 -0.00101164 20.6865 1.64517e-06 23.0005C-0.00101164 24.1565 0.466112 25.2163 1.22303 25.9731C1.98097 26.7319 3.02668 27.2112 4.18182 27.2112H18.8268V41.8127C18.8268 42.9697 19.2858 44.0173 20.0437 44.7731C20.8017 45.5309 21.8444 46 23.0015 46C25.3138 46 27.1854 44.1247 27.1854 41.8127V27.2101H41.8121C44.1254 27.2101 46.001 25.3186 46 23.0056C45.999 20.6936 44.1234 18.801 41.8121 18.801Z" fill="white"/>
</svg>
