<svg width="1303" height="734" viewBox="0 0 1303 734" fill="none" xmlns="http://www.w3.org/2000/svg">
<g filter="url(#filter0_d_41_2)">
<path d="M1249.5 207.58C1217.56 137.514 1169.26 76.4321 1097.92 42.3923C1002.62 -3.3219 889.635 -4.45408 790.729 30.5137C734.32 50.4661 684.282 83.9861 635.675 118.137C592.453 148.502 531.937 228.682 478.5 238.5C342.5 263.488 216.689 205.295 104.5 274C40 313.5 -13.5755 404.562 18 508.5C49.5755 612.438 166.923 536.122 211.5 621.5C256.077 706.878 381.617 762.257 578.5 714C775.383 665.743 883.598 663.423 987.612 702.4C1091.63 741.376 1234.64 752.513 1282.94 589.181C1302.38 523.606 1307.77 454.671 1298.76 386.873C1290.77 327.591 1275.51 264.616 1249.5 207.58Z" fill="#FBF8FF"/>
</g>
<path d="M252.03 278.698L264.28 280.098L266.83 268.948L255.41 264.948C255.266 262.675 254.791 260.434 254 258.298L262.43 249.908L255.3 240.958L245.39 247.218C243.424 245.85 241.259 244.794 238.97 244.088L237.74 232.568H226.26L224.97 244.168C222.695 244.891 220.544 245.956 218.59 247.328L208.74 241.088L201.61 250.028L210.09 258.478C209.314 260.606 208.856 262.837 208.73 265.098L197.32 269.098L199.87 280.248L212.14 278.858C213.246 280.659 214.592 282.3 216.14 283.738L212 295.498L222.3 300.498L229 289.798C229.995 289.925 230.997 289.992 232 289.998C233.047 289.996 234.093 289.922 235.13 289.778L241.8 300.448L252.1 295.448L247.96 283.668C249.538 282.205 250.907 280.533 252.03 278.698ZM219.35 266.488C219.35 263.976 220.095 261.521 221.49 259.432C222.886 257.344 224.869 255.716 227.19 254.755C229.511 253.794 232.064 253.542 234.528 254.032C236.991 254.522 239.254 255.732 241.03 257.508C242.806 259.284 244.016 261.547 244.506 264.011C244.996 266.474 244.745 269.028 243.783 271.348C242.822 273.669 241.194 275.652 239.106 277.048C237.017 278.443 234.562 279.188 232.05 279.188C228.682 279.188 225.451 277.85 223.07 275.468C220.688 273.087 219.35 269.856 219.35 266.488Z" stroke="#5F34A7" stroke-miterlimit="10"/>
<path d="M87.13 492.188L92.13 492.748L93.13 488.248L88.51 486.638C88.4546 485.718 88.2625 484.812 87.94 483.948L91.35 480.548L88.47 476.938L84.47 479.468C83.6742 478.913 82.7971 478.485 81.87 478.198L81.36 473.528H76.74L76.22 478.218C75.3012 478.514 74.4317 478.946 73.64 479.498L69.64 476.978L66.74 480.588L70.17 484.008C69.8545 484.87 69.6659 485.772 69.61 486.688L65 488.288L66 492.798L71 492.228C71.4488 492.967 71.9973 493.64 72.63 494.228L70.96 498.978L75.12 500.978L77.83 496.648C78.2379 496.7 78.6487 496.727 79.06 496.728C79.4816 496.728 79.9027 496.698 80.32 496.638L83.02 500.958L87.19 498.958L85.51 494.198C86.137 493.603 86.6818 492.927 87.13 492.188ZM73.91 487.248C73.91 486.232 74.2115 485.238 74.7762 484.393C75.341 483.547 76.1438 482.889 77.083 482.499C78.0222 482.11 79.0557 482.009 80.0528 482.207C81.0498 482.405 81.9657 482.895 82.6845 483.614C83.4034 484.333 83.8929 485.248 84.0912 486.245C84.2896 487.243 84.1878 488.276 83.7987 489.215C83.4097 490.154 82.7509 490.957 81.9056 491.522C81.0604 492.087 80.0666 492.388 79.05 492.388C77.6868 492.388 76.3794 491.847 75.4155 490.883C74.4515 489.919 73.91 488.611 73.91 487.248Z" stroke="#5F34A7" stroke-miterlimit="10"/>
<g opacity="0.2">
<path d="M120.89 414.768C124.42 412.248 129.23 403.768 129.23 403.768C129.23 403.768 122.7 402.288 122.23 402.248C117.31 401.788 107.53 403.788 105.35 408.878C105.012 409.734 104.858 410.651 104.898 411.57C104.938 412.489 105.17 413.389 105.58 414.212C105.991 415.035 106.569 415.763 107.279 416.348C107.989 416.933 108.814 417.363 109.7 417.608C113.46 418.858 117.89 416.908 120.89 414.768Z" fill="#FF7C78"/>
<path d="M173.2 331.548C173.29 331.548 168.57 326.718 168.2 326.448C164.36 323.358 155.09 319.628 150.47 322.668C149.715 323.193 149.08 323.872 148.605 324.659C148.131 325.446 147.827 326.325 147.715 327.237C147.603 328.15 147.684 329.076 147.954 329.955C148.223 330.834 148.675 331.646 149.28 332.338C151.74 335.338 156.48 336.238 160.17 336.108C164.53 335.958 173.19 331.558 173.2 331.548Z" fill="#FF7C78"/>
<path d="M157.89 288.588C154.55 293.008 157.66 302.488 160.51 306.588C160.75 306.938 165.22 311.958 165.27 311.878L165.33 311.768C165.81 313.268 166.33 314.878 166.96 316.618C168.12 319.818 169.46 323.438 171.19 327.268C173.006 331.415 175.063 335.452 177.35 339.358C179.886 343.751 182.811 347.908 186.09 351.778L186.22 351.918C184.84 351.058 180.91 348.788 180.59 348.648C176.06 346.648 166.14 345.528 162.48 349.648C161.893 350.356 161.46 351.179 161.212 352.064C160.963 352.95 160.903 353.877 161.036 354.787C161.169 355.697 161.492 356.569 161.983 357.346C162.475 358.123 163.125 358.788 163.89 359.298C167.07 361.568 171.89 361.148 175.38 360.048C179.38 358.808 186.09 352.798 186.62 352.318C190.043 356.171 193.718 359.792 197.62 363.158C199.89 365.158 202.24 367.058 204.62 368.948C203.4 368.248 202.31 367.628 202.15 367.558C197.62 365.558 187.7 364.438 184.05 368.558C183.461 369.264 183.026 370.087 182.776 370.972C182.526 371.857 182.464 372.785 182.597 373.696C182.729 374.606 183.051 375.478 183.543 376.256C184.034 377.033 184.684 377.699 185.45 378.208C188.63 380.478 193.45 380.058 196.95 378.958C200.45 377.858 206.36 372.828 207.89 371.488C208.81 372.198 209.72 372.928 210.65 373.638C215.07 377.058 219.5 380.458 223.74 383.918C225.24 385.138 226.67 386.398 228.1 387.648C227.02 387.028 226.1 386.508 225.96 386.448C221.43 384.448 211.51 383.328 207.86 387.448C207.271 388.154 206.836 388.977 206.586 389.862C206.336 390.747 206.274 391.675 206.407 392.586C206.539 393.496 206.861 394.368 207.353 395.146C207.844 395.923 208.494 396.589 209.26 397.098C212.44 399.368 217.26 398.948 220.76 397.848C224.26 396.748 229.6 392.208 231.43 390.618C232.86 391.938 234.29 393.268 235.62 394.618C236.5 395.558 237.42 396.408 238.25 397.398L240.77 400.278C242.31 402.168 243.9 404.098 245.35 405.978C246.35 407.278 247.35 408.538 248.27 409.798C246.8 408.568 243.86 406.218 243.59 406.048C239.826 403.869 235.568 402.688 231.22 402.618C230.812 402.357 230.38 402.136 229.93 401.958C229.09 401.588 228.181 401.398 227.262 401.402C226.344 401.406 225.436 401.603 224.599 401.98C223.762 402.357 223.013 402.906 222.401 403.592C221.79 404.277 221.33 405.083 221.05 405.958C219.53 411.278 225.84 419.018 229.94 421.768C230.19 421.928 233.01 423.398 234.81 424.298C233.67 423.928 232.57 423.558 231.4 423.198C229.08 422.458 226.75 421.798 224.24 421.078L220.53 420.148C219.3 419.808 217.95 419.608 216.65 419.328C213.65 418.758 210.54 418.328 207.41 417.938C208.05 415.938 210.21 408.668 209.78 404.938C209.35 401.208 207.78 396.718 204.43 394.738C203.654 394.244 202.782 393.92 201.872 393.785C200.962 393.651 200.034 393.71 199.148 393.958C198.262 394.206 197.439 394.638 196.731 395.225C196.023 395.813 195.447 396.543 195.04 397.368C192.73 402.368 197.8 410.988 201.44 414.368C201.67 414.578 204.55 416.678 206.15 417.808C204.27 417.598 202.4 417.378 200.49 417.228C194.97 416.788 189.38 416.528 183.8 416.228C182.09 416.138 180.39 416.028 178.69 415.928C178.92 415.208 181.69 406.648 181.2 402.518C180.78 398.858 179.2 394.298 175.85 392.318C175.074 391.824 174.202 391.5 173.292 391.365C172.382 391.231 171.454 391.29 170.568 391.538C169.682 391.786 168.859 392.218 168.151 392.805C167.443 393.393 166.867 394.123 166.46 394.948C164.15 399.948 169.22 408.568 172.86 411.948C173.13 412.198 177.28 415.218 178.38 415.948C174.62 415.718 170.89 415.458 167.21 415.048C162.246 414.53 157.322 413.685 152.47 412.518C152.58 412.188 155.47 403.268 155 399.048C154.58 395.378 153 390.818 149.65 388.838C148.875 388.345 148.004 388.02 147.094 387.886C146.185 387.751 145.258 387.81 144.373 388.058C143.488 388.306 142.665 388.738 141.958 389.326C141.251 389.913 140.676 390.643 140.27 391.468C137.95 396.468 143.02 405.088 146.66 408.468C146.9 408.688 150.06 410.998 151.59 412.058L151.46 412.338C146.604 411.043 141.875 409.313 137.33 407.168C134.81 406.018 132.47 404.778 130.22 403.528C130.93 401.918 134.11 394.528 134.09 390.698C134.09 387.008 133.02 382.308 129.9 379.968C129.183 379.392 128.353 378.974 127.463 378.74C126.574 378.507 125.645 378.463 124.738 378.612C123.83 378.761 122.964 379.1 122.196 379.606C121.428 380.111 120.775 380.773 120.28 381.548C117.43 386.288 121.52 395.398 124.77 399.118C124.95 399.318 126.97 401.178 128.46 402.508C127.46 401.928 126.41 401.348 125.46 400.768C121.88 398.618 118.72 396.418 115.95 394.448C114.38 393.318 112.95 392.268 111.69 391.268C111.56 389.328 110.97 381.508 109.21 378.168C107.45 374.828 104.4 371.168 100.55 370.578C99.6486 370.398 98.7193 370.409 97.8226 370.611C96.9258 370.813 96.0816 371.202 95.345 371.752C94.6083 372.302 93.9957 373 93.5468 373.803C93.098 374.605 92.8231 375.493 92.74 376.408C92.39 381.938 100.22 388.128 104.82 389.938C105.22 390.088 111.72 391.818 111.71 391.718C111.714 391.678 111.714 391.638 111.71 391.598C112.94 392.598 114.27 393.598 115.71 394.738C118.45 396.738 121.57 399.038 125.12 401.288C128.924 403.745 132.867 405.979 136.93 407.978C141.471 410.238 146.203 412.091 151.07 413.518H151.25C149.63 413.518 145.1 413.838 144.76 413.898C139.89 414.748 130.98 419.268 130.22 424.748C130.12 425.662 130.214 426.587 130.495 427.463C130.776 428.338 131.238 429.145 131.851 429.831C132.464 430.516 133.214 431.065 134.053 431.442C134.892 431.819 135.8 432.015 136.72 432.018C140.62 432.158 144.39 429.168 146.72 426.308C149.35 423.078 151.65 414.308 151.83 413.648C156.817 414.987 161.888 415.99 167.01 416.648C170.01 417.048 173.01 417.348 176.01 417.648C174.61 417.738 173.36 417.818 173.18 417.848C168.31 418.708 159.41 423.218 158.65 428.698C158.549 429.612 158.641 430.536 158.921 431.412C159.201 432.288 159.662 433.095 160.274 433.78C160.886 434.466 161.636 435.015 162.474 435.392C163.312 435.769 164.221 435.965 165.14 435.968C169.05 436.118 172.82 433.118 175.14 430.258C177.46 427.398 179.61 419.948 180.14 417.988L183.63 418.268C189.21 418.678 194.78 419.068 200.23 419.618C202.15 419.808 204.03 420.068 205.92 420.318C204.68 420.398 203.63 420.468 203.47 420.498C198.6 421.348 189.7 425.868 188.94 431.348C188.839 432.262 188.931 433.186 189.211 434.062C189.491 434.938 189.952 435.745 190.564 436.43C191.176 437.116 191.926 437.665 192.764 438.042C193.602 438.419 194.511 438.615 195.43 438.618C199.34 438.758 203.1 435.768 205.43 432.898C207.76 430.028 209.69 423.318 210.33 420.978C212.26 421.298 214.19 421.618 216.04 421.978C217.29 422.278 218.52 422.478 219.77 422.848L223.46 423.848C225.78 424.578 228.18 425.308 230.46 426.078C232.03 426.598 233.46 427.128 235.01 427.648C233.1 427.438 229.35 427.098 229.01 427.108C224.07 427.208 214.59 430.328 213.01 435.628C212.772 436.516 212.723 437.444 212.866 438.351C213.01 439.259 213.343 440.126 213.844 440.897C214.345 441.667 215.002 442.324 215.773 442.824C216.544 443.324 217.412 443.656 218.32 443.798C222.16 444.528 226.32 442.138 229.08 439.668C232.08 436.938 235.58 428.998 236.01 428.008C238.48 428.888 240.88 429.758 243.12 430.628C250.85 433.578 257.17 436.328 261.6 438.328L263.52 435.108L263.23 434.978C258.7 433.048 252.23 430.388 244.23 427.548C241.73 426.648 239.03 425.738 236.23 424.818C236.68 422.065 236.96 419.286 237.07 416.498C241.16 415.648 247.96 411.258 248.84 410.688C250.42 412.788 251.93 414.838 253.33 416.798C258.14 423.518 261.9 429.308 264.49 433.408L266.74 429.858C264.1 425.908 260.53 420.728 256.11 414.858C254.52 412.718 252.78 410.468 250.96 408.178C251.69 407.398 257.55 400.978 258.82 397.108C259.97 393.598 260.46 388.818 258.23 385.598C257.733 384.825 257.078 384.166 256.308 383.663C255.539 383.16 254.672 382.825 253.764 382.679C252.856 382.534 251.928 382.582 251.04 382.819C250.152 383.057 249.324 383.479 248.61 384.058C244.4 387.648 245.4 397.578 247.31 402.138C247.42 402.408 248.96 405.198 249.97 406.938C249.22 405.998 248.51 405.088 247.73 404.138C246.2 402.248 244.62 400.408 242.93 398.418L240.35 395.598C239.51 394.598 238.5 393.728 237.56 392.778C235.36 390.628 233.02 388.558 230.62 386.518C232.27 385.178 238.07 380.328 239.75 377.018C241.43 373.708 242.63 369.018 240.92 365.558C240.546 364.717 239.999 363.965 239.315 363.349C238.631 362.734 237.825 362.27 236.95 361.987C236.074 361.704 235.149 361.608 234.234 361.707C233.319 361.805 232.435 362.095 231.64 362.558C226.93 365.478 226.42 375.448 227.64 380.238C227.71 380.538 228.96 383.888 229.64 385.708C228.19 384.498 226.75 383.278 225.24 382.098C220.88 378.698 216.36 375.388 211.87 372.098C210.49 371.098 209.13 370.098 207.77 369.028C208.36 368.558 215.38 362.938 217.25 359.238C218.93 355.948 220.14 351.288 218.42 347.778C218.046 346.937 217.499 346.185 216.815 345.569C216.131 344.954 215.325 344.49 214.45 344.207C213.574 343.924 212.649 343.828 211.734 343.927C210.819 344.025 209.935 344.315 209.14 344.778C204.44 347.688 203.92 357.658 205.14 362.458C205.23 362.818 207.02 367.628 207.54 368.828C204.54 366.568 201.54 364.288 198.72 361.928C194.84 358.758 191.173 355.337 187.74 351.688C188.01 351.468 195.36 345.688 197.29 341.848C198.96 338.558 200.17 333.848 198.45 330.388C198.077 329.548 197.532 328.795 196.848 328.18C196.165 327.565 195.36 327.1 194.485 326.817C193.61 326.534 192.686 326.439 191.772 326.537C190.858 326.635 189.974 326.925 189.18 327.388C184.47 330.308 183.96 340.278 185.18 345.068C185.26 345.388 186.62 349.068 187.31 350.778L187.04 350.948C183.716 347.189 180.731 343.143 178.12 338.858C176.66 336.508 175.39 334.188 174.2 331.858C175.68 330.918 182.4 326.518 184.51 323.298C186.62 320.078 188.24 315.708 186.93 312.038C186.651 311.161 186.19 310.352 185.577 309.665C184.964 308.978 184.213 308.428 183.373 308.05C182.534 307.673 181.624 307.477 180.703 307.474C179.782 307.472 178.871 307.665 178.03 308.038C173.03 310.418 171.43 320.268 172.09 325.168C172.09 325.428 172.79 328.098 173.3 330.038C172.78 329.038 172.22 327.928 171.74 326.928C169.94 323.148 168.52 319.578 167.29 316.408C166.61 314.598 166.03 312.948 165.5 311.408C166.5 309.718 170.28 302.878 170.66 299.118C171.04 295.358 170.48 290.658 167.66 288.008C167.006 287.354 166.221 286.845 165.357 286.516C164.492 286.188 163.568 286.046 162.645 286.101C161.721 286.156 160.82 286.406 160 286.834C159.181 287.263 158.462 287.861 157.89 288.588Z" fill="#FF7C78"/>
</g>
<g opacity="0.2">
<path d="M365.74 266.338C368.53 269.658 377.32 273.788 377.33 273.788C377.34 273.788 378.33 267.158 378.33 266.738C378.4 261.798 375.65 252.198 370.4 250.418C369.522 250.149 368.598 250.067 367.686 250.177C366.775 250.288 365.896 250.588 365.108 251.06C364.32 251.531 363.64 252.162 363.112 252.913C362.583 253.664 362.218 254.517 362.04 255.418C361.15 259.238 363.38 263.508 365.74 266.338Z" fill="#FF7C78"/>
<path d="M452.8 311.978C452.85 312.068 457.25 306.978 457.49 306.638C460.28 302.558 463.27 293.028 459.88 288.638C459.297 287.927 458.57 287.347 457.747 286.936C456.925 286.524 456.025 286.291 455.106 286.25C454.187 286.21 453.27 286.363 452.414 286.7C451.559 287.038 450.784 287.551 450.14 288.208C447.31 290.898 446.83 295.688 447.24 299.358C447.74 303.678 452.79 311.978 452.8 311.978Z" fill="#FF7C78"/>
<path d="M494.43 293.368C489.77 290.368 480.56 294.228 476.75 297.368C476.42 297.638 471.75 302.488 471.85 302.528H471.95C470.49 303.128 468.95 303.778 467.25 304.528C464.14 305.938 460.65 307.528 456.96 309.528C452.968 311.664 449.105 314.031 445.39 316.618C441.211 319.491 437.295 322.731 433.69 326.298C433.644 326.343 433.601 326.389 433.56 326.438C434.31 324.998 436.27 320.898 436.38 320.568C437.99 315.898 438.38 305.928 433.94 302.568C433.189 302.038 432.334 301.671 431.432 301.493C430.53 301.314 429.601 301.327 428.704 301.53C427.807 301.734 426.963 302.124 426.227 302.675C425.491 303.226 424.878 303.925 424.43 304.728C422.43 308.068 423.2 312.818 424.58 316.248C426.12 320.108 432.64 326.348 433.16 326.848C429.579 330.625 426.255 334.638 423.21 338.858C421.42 341.278 419.69 343.768 417.99 346.288C418.6 345.018 419.13 343.878 419.19 343.718C420.8 339.048 421.19 329.068 416.74 325.718C415.991 325.186 415.138 324.818 414.236 324.638C413.335 324.457 412.406 324.469 411.51 324.672C410.614 324.875 409.77 325.264 409.034 325.815C408.299 326.366 407.687 327.065 407.24 327.868C405.24 331.218 406.01 335.958 407.38 339.388C408.75 342.818 414.23 348.298 415.69 349.718C415.05 350.718 414.39 351.658 413.75 352.628C410.69 357.308 407.65 361.988 404.53 366.488C403.43 368.078 402.29 369.598 401.15 371.128C401.69 370.008 402.15 369.048 402.15 368.898C403.76 364.228 404.15 354.258 399.71 350.898C398.959 350.368 398.104 350.001 397.202 349.823C396.3 349.644 395.371 349.657 394.474 349.86C393.577 350.064 392.733 350.454 391.997 351.005C391.261 351.556 390.648 352.255 390.2 353.058C388.2 356.398 388.98 361.148 390.35 364.578C391.72 368.008 396.66 372.958 398.35 374.648C397.14 376.178 395.93 377.708 394.69 379.138C393.82 380.088 393.05 381.068 392.12 381.978L389.45 384.718C387.69 386.398 385.88 388.138 384.12 389.718C382.91 390.838 381.73 391.878 380.54 392.928C381.66 391.358 383.77 388.248 383.92 387.928C385.802 384.007 386.646 379.669 386.37 375.328C386.602 374.905 386.789 374.459 386.93 373.998C387.235 373.13 387.353 372.208 387.277 371.291C387.201 370.374 386.933 369.483 386.489 368.677C386.046 367.871 385.437 367.168 384.703 366.613C383.969 366.059 383.126 365.665 382.23 365.458C376.81 364.348 369.59 371.248 367.17 375.548C367.03 375.808 365.78 378.738 365.03 380.548C365.31 379.388 365.59 378.258 365.86 377.058C366.41 374.698 366.86 372.318 367.42 369.758C367.63 368.518 367.84 367.258 368.05 365.988C368.26 364.718 368.39 363.378 368.56 362.058C368.9 358.998 369.1 355.878 369.22 352.738C371.3 353.218 378.69 354.798 382.33 354.088C385.97 353.378 390.33 351.468 392.08 347.958C392.512 347.147 392.769 346.253 392.832 345.336C392.896 344.419 392.765 343.498 392.449 342.635C392.133 341.771 391.639 340.984 390.998 340.325C390.357 339.666 389.584 339.149 388.73 338.808C383.54 336.888 375.36 342.618 372.31 346.508C372.12 346.748 370.25 349.788 369.25 351.508C369.32 349.618 369.39 347.728 369.39 345.808C369.39 340.278 369.22 334.688 369.08 329.098C369.03 327.388 369.01 325.688 368.97 323.978C369.71 324.158 378.46 326.228 382.53 325.438C386.15 324.728 390.53 322.818 392.29 319.308C392.721 318.496 392.976 317.602 393.039 316.684C393.102 315.766 392.971 314.846 392.655 313.982C392.339 313.118 391.845 312.331 391.205 311.67C390.565 311.01 389.793 310.491 388.94 310.148C383.74 308.238 375.57 313.958 372.52 317.848C372.29 318.148 369.6 322.518 368.97 323.668C368.9 319.908 368.87 316.158 368.97 312.468C369.1 307.477 369.558 302.5 370.34 297.568C370.68 297.648 379.8 299.858 383.97 299.048C387.6 298.338 391.97 296.428 393.73 292.918C394.146 292.116 394.392 291.236 394.453 290.334C394.513 289.431 394.386 288.527 394.08 287.676C393.774 286.825 393.295 286.047 392.674 285.39C392.053 284.733 391.302 284.211 390.47 283.858C385.27 281.948 377.1 287.668 374.05 291.558C373.85 291.818 371.79 295.148 370.86 296.758L370.56 296.648C371.477 291.706 372.836 286.857 374.62 282.158C375.57 279.558 376.62 277.158 377.69 274.778C379.35 275.368 386.94 277.958 390.78 277.638C394.46 277.338 399.06 275.918 401.15 272.638C401.669 271.879 402.021 271.02 402.186 270.116C402.35 269.211 402.321 268.283 402.102 267.39C401.884 266.498 401.479 265.661 400.915 264.935C400.351 264.21 399.641 263.611 398.83 263.178C393.83 260.698 385.12 265.498 381.66 269.028C381.47 269.218 379.78 271.378 378.57 272.978C379.07 271.978 379.57 270.828 380.07 269.838C381.93 266.088 383.88 262.778 385.62 259.838C386.62 258.188 387.57 256.708 388.46 255.338C390.39 255.068 398.13 253.868 401.33 251.848C404.53 249.828 407.89 246.508 408.22 242.618C408.33 241.706 408.246 240.78 407.974 239.902C407.703 239.024 407.249 238.213 406.644 237.522C406.038 236.831 405.294 236.275 404.46 235.89C403.625 235.505 402.719 235.3 401.8 235.288C396.26 235.378 390.7 243.658 389.26 248.388C389.13 248.798 387.92 255.388 388.02 255.388H388.14C387.25 256.688 386.31 258.088 385.32 259.648C383.51 262.538 381.49 265.818 379.53 269.538C377.36 273.528 375.427 277.642 373.74 281.858C371.836 286.56 370.357 291.423 369.32 296.388C369.325 296.448 369.325 296.508 369.32 296.568C369.15 294.958 368.53 290.468 368.44 290.128C367.21 285.338 362.01 276.818 356.49 276.488C355.575 276.459 354.664 276.623 353.816 276.968C352.967 277.313 352.201 277.832 351.566 278.492C350.931 279.151 350.441 279.937 350.128 280.798C349.816 281.658 349.687 282.575 349.75 283.488C349.91 287.388 353.19 290.918 356.22 293.018C359.64 295.388 368.53 297.018 369.22 297.118C368.292 302.197 367.704 307.331 367.46 312.488C367.3 315.488 367.23 318.488 367.2 321.558C367 320.168 366.82 318.928 366.78 318.758C365.55 313.978 360.35 305.448 354.83 305.118C353.915 305.089 353.004 305.253 352.156 305.598C351.307 305.943 350.541 306.462 349.906 307.122C349.271 307.781 348.781 308.567 348.468 309.428C348.156 310.288 348.027 311.205 348.09 312.118C348.25 316.028 351.53 319.548 354.56 321.648C357.59 323.748 365.19 325.308 367.19 325.648C367.19 326.818 367.19 327.978 367.19 329.148C367.19 334.738 367.26 340.328 367.19 345.798C367.19 347.728 367.04 349.628 366.93 351.528C366.76 350.298 366.6 349.258 366.56 349.098C365.33 344.318 360.14 335.788 354.61 335.458C353.695 335.431 352.785 335.596 351.937 335.941C351.09 336.287 350.324 336.806 349.689 337.465C349.055 338.125 348.565 338.909 348.252 339.769C347.938 340.629 347.808 341.545 347.87 342.458C348.03 346.358 351.31 349.878 354.35 351.978C357.39 354.078 364.24 355.488 366.62 355.978C366.45 357.918 366.29 359.868 366.04 361.738C365.84 363.018 365.74 364.258 365.46 365.528C365.18 366.798 364.98 368.048 364.75 369.288C364.2 371.658 363.65 374.108 363.06 376.398C362.67 378.008 362.26 379.528 361.85 381.058C361.92 379.138 361.96 375.368 361.93 375.058C361.44 370.138 357.59 360.928 352.18 359.768C351.277 359.6 350.348 359.624 349.455 359.838C348.561 360.052 347.722 360.451 346.993 361.01C346.264 361.57 345.661 362.276 345.223 363.084C344.785 363.891 344.521 364.782 344.45 365.698C344.02 369.588 346.73 373.568 349.45 376.098C352.4 378.898 360.59 381.748 361.62 382.098C360.93 384.628 360.25 387.098 359.56 389.388C357.22 397.318 354.97 403.838 353.33 408.388L356.69 410.058C356.69 409.948 356.76 409.858 356.79 409.748C358.36 405.088 360.51 398.398 362.72 390.268C363.42 387.698 364.12 384.938 364.81 382.098C367.591 382.323 370.382 382.383 373.17 382.278C374.34 386.278 379.25 392.738 379.89 393.558C377.89 395.298 375.99 396.968 374.15 398.508C367.82 403.838 362.35 408.038 358.46 410.938L362.14 412.768C365.88 409.828 370.76 405.858 376.28 400.998C378.28 399.248 380.39 397.328 382.54 395.348C383.37 395.998 390.23 401.348 394.18 402.348C397.77 403.218 402.58 403.348 405.61 400.868C406.341 400.311 406.946 399.607 407.387 398.801C407.828 397.995 408.094 397.105 408.169 396.189C408.243 395.274 408.124 394.352 407.82 393.486C407.515 392.619 407.031 391.826 406.4 391.158C402.49 387.238 392.66 389.008 388.27 391.268C388.01 391.398 385.35 393.158 383.7 394.268C384.57 393.448 385.43 392.668 386.31 391.818C388.08 390.148 389.79 388.428 391.64 386.578L394.25 383.788C395.14 382.878 395.97 381.788 396.84 380.788C398.84 378.418 400.7 375.928 402.54 373.368C404.01 374.918 409.3 380.368 412.72 381.728C416.14 383.088 420.87 383.978 424.24 381.998C425.048 381.559 425.754 380.955 426.313 380.225C426.872 379.496 427.271 378.656 427.484 377.762C427.697 376.868 427.72 375.939 427.55 375.035C427.381 374.132 427.023 373.274 426.5 372.518C423.22 368.058 413.24 368.318 408.55 369.878C408.26 369.978 405.02 371.478 403.26 372.338C404.35 370.788 405.46 369.258 406.51 367.658C409.57 363.048 412.51 358.288 415.51 353.548C416.42 352.098 417.34 350.658 418.25 349.218C418.77 349.778 424.92 356.328 428.76 357.918C432.17 359.328 436.91 360.168 440.27 358.188C441.078 357.748 441.784 357.143 442.343 356.413C442.902 355.682 443.301 354.842 443.514 353.947C443.727 353.052 443.75 352.122 443.58 351.218C443.411 350.314 443.053 349.455 442.53 348.698C439.25 344.238 429.27 344.498 424.59 346.068C424.23 346.188 419.59 348.348 418.42 348.958C420.42 345.788 422.48 342.638 424.61 339.628C427.48 335.541 430.609 331.643 433.98 327.958C434.22 328.218 440.6 335.088 444.54 336.708C447.95 338.118 452.69 338.958 456.05 336.978C456.858 336.539 457.564 335.935 458.123 335.205C458.682 334.476 459.081 333.636 459.294 332.742C459.507 331.848 459.53 330.919 459.36 330.015C459.191 329.112 458.833 328.254 458.31 327.498C455.03 323.038 445.05 323.298 440.37 324.858C440.06 324.968 436.51 326.608 434.84 327.428L434.65 327.178C438.145 323.565 441.953 320.269 446.03 317.328C448.25 315.688 450.47 314.238 452.66 312.878C453.72 314.278 458.66 320.628 462 322.488C465.34 324.348 469.85 325.618 473.42 324.018C474.271 323.67 475.039 323.146 475.675 322.482C476.31 321.817 476.798 321.026 477.108 320.16C477.417 319.294 477.541 318.373 477.47 317.456C477.4 316.539 477.138 315.647 476.7 314.838C473.94 310.048 463.99 309.208 459.16 310.248C458.89 310.308 456.29 311.178 454.4 311.838C455.4 311.238 456.4 310.598 457.4 310.048C461.02 307.948 464.47 306.258 467.54 304.788C469.29 303.958 470.89 303.248 472.39 302.598C474.15 303.438 481.27 306.708 485.05 306.798C488.83 306.888 493.46 305.958 495.89 302.888C496.456 302.182 496.869 301.365 497.103 300.491C497.338 299.616 497.388 298.703 497.25 297.808C497.113 296.913 496.792 296.056 496.306 295.292C495.821 294.528 495.182 293.873 494.43 293.368Z" fill="#FF7C78"/>
</g>
<g opacity="0.2">
<path d="M276.54 595.858C273.83 592.478 265.12 588.148 265.12 588.148C265.12 588.148 264.01 594.748 263.99 595.148C263.81 600.088 266.35 609.738 271.56 611.628C272.432 611.919 273.356 612.022 274.27 611.933C275.185 611.843 276.071 611.561 276.87 611.107C277.669 610.652 278.363 610.034 278.907 609.294C279.452 608.553 279.834 607.706 280.03 606.808C280.98 603.038 278.85 598.728 276.54 595.858Z" fill="#FF7C78"/>
<path d="M190.53 548.278C190.53 548.188 185.96 553.168 185.71 553.518C182.84 557.518 179.63 566.988 182.93 571.438C183.496 572.162 184.209 572.759 185.021 573.189C185.834 573.619 186.728 573.873 187.645 573.934C188.562 573.995 189.482 573.863 190.344 573.545C191.207 573.227 191.992 572.73 192.65 572.088C195.54 569.458 196.14 564.678 195.8 561.008C195.41 556.688 190.53 548.288 190.53 548.278Z" fill="#FF7C78"/>
<path d="M148.49 565.968C153.09 569.048 162.38 565.418 166.26 562.348C166.6 562.088 171.36 557.348 171.26 557.298L171.16 557.248C172.63 556.678 174.16 556.058 175.91 555.348C179.04 554.008 182.57 552.468 186.3 550.528C190.34 548.483 194.257 546.202 198.03 543.698C202.273 540.92 206.259 537.767 209.94 534.278L210.07 534.148C209.29 535.568 207.25 539.618 207.07 539.948C205.36 544.578 204.77 554.548 209.12 557.948C209.858 558.496 210.703 558.882 211.6 559.082C212.498 559.282 213.427 559.29 214.328 559.107C215.228 558.924 216.08 558.554 216.829 558.02C217.577 557.486 218.204 556.801 218.67 556.008C220.76 552.708 220.07 547.938 218.78 544.488C217.32 540.588 210.94 534.198 210.43 533.698C214.119 530.063 217.563 526.188 220.74 522.098C222.58 519.718 224.37 517.268 226.13 514.788C225.49 516.038 224.94 517.158 224.87 517.328C223.16 521.968 222.57 531.928 226.87 535.328C227.608 535.876 228.453 536.262 229.35 536.462C230.248 536.662 231.177 536.67 232.078 536.487C232.978 536.304 233.83 535.934 234.579 535.4C235.327 534.866 235.954 534.181 236.42 533.388C238.51 530.088 237.82 525.318 236.53 521.868C235.24 518.418 229.88 512.808 228.45 511.358C229.12 510.358 229.79 509.448 230.45 508.488C233.62 503.878 236.76 499.258 239.99 494.828C241.12 493.268 242.3 491.778 243.47 490.268C242.9 491.388 242.47 492.328 242.38 492.478C240.67 497.108 240.08 507.078 244.38 510.478C245.122 511.023 245.97 511.406 246.87 511.601C247.77 511.797 248.701 511.8 249.602 511.611C250.503 511.423 251.354 511.046 252.1 510.506C252.846 509.966 253.469 509.275 253.93 508.478C256.02 505.188 255.33 500.418 254.04 496.958C252.75 493.498 247.91 488.448 246.22 486.718C247.46 485.218 248.71 483.718 249.98 482.308C250.87 481.378 251.67 480.408 252.61 479.518L255.34 476.848C257.14 475.208 258.99 473.508 260.78 471.958C262.02 470.868 263.22 469.848 264.43 468.828C263.28 470.368 261.1 473.428 260.95 473.708C258.98 477.585 258.04 481.903 258.22 486.248C257.98 486.669 257.779 487.111 257.62 487.568C257.298 488.43 257.161 489.35 257.217 490.268C257.274 491.186 257.523 492.082 257.948 492.898C258.373 493.714 258.965 494.431 259.686 495.003C260.406 495.575 261.239 495.989 262.13 496.218C267.53 497.438 274.9 490.708 277.42 486.448C277.56 486.198 278.87 483.298 279.67 481.448C279.36 482.598 279.06 483.718 278.76 484.908C278.16 487.268 277.63 489.638 277.04 492.178C276.81 493.418 276.57 494.668 276.32 495.938C276.07 497.208 275.93 498.538 275.73 499.848C275.32 502.898 275.05 506.018 274.86 509.158C272.79 508.638 265.44 506.878 261.78 507.508C258.12 508.138 253.69 509.948 251.9 513.428C251.45 514.229 251.174 515.117 251.09 516.032C251.005 516.947 251.115 517.869 251.411 518.739C251.708 519.609 252.184 520.407 252.809 521.081C253.434 521.754 254.194 522.288 255.04 522.648C260.19 524.648 268.5 519.138 271.63 515.318C271.83 515.078 273.77 512.078 274.8 510.418C274.7 512.308 274.58 514.188 274.54 516.108C274.41 521.638 274.46 527.238 274.48 532.818C274.48 534.538 274.48 536.238 274.48 537.948C273.75 537.748 265.05 535.478 260.96 536.188C257.32 536.818 252.86 538.628 251.07 542.098C250.62 542.901 250.344 543.789 250.261 544.706C250.177 545.622 250.288 546.546 250.585 547.416C250.882 548.287 251.359 549.086 251.986 549.76C252.612 550.434 253.373 550.968 254.22 551.328C259.36 553.328 267.67 547.808 270.8 543.988C271.04 543.698 273.8 539.388 274.48 538.258C274.48 542.018 274.41 545.758 274.21 549.458C273.962 554.443 273.394 559.406 272.51 564.318C272.17 564.228 263.1 561.818 258.91 562.538C255.27 563.168 250.81 564.978 249.02 568.448C248.572 569.251 248.297 570.139 248.214 571.055C248.132 571.971 248.242 572.894 248.539 573.765C248.836 574.635 249.313 575.433 249.939 576.107C250.564 576.782 251.324 577.317 252.17 577.678C257.32 579.678 265.62 574.168 268.75 570.338C268.96 570.088 271.09 566.808 272.06 565.218L272.35 565.338C271.349 570.298 269.903 575.158 268.03 579.858C267.03 582.438 265.92 584.858 264.79 587.168C263.15 586.538 255.61 583.778 251.79 584.018C248.1 584.238 243.47 585.548 241.31 588.808C240.775 589.555 240.403 590.407 240.218 591.307C240.034 592.208 240.042 593.137 240.241 594.034C240.44 594.932 240.826 595.777 241.374 596.515C241.922 597.253 242.619 597.868 243.42 598.318C248.32 600.898 257.18 596.318 260.71 592.848C260.91 592.668 262.65 590.538 263.9 588.978C263.37 589.978 262.85 591.088 262.33 592.078C260.33 595.778 258.33 599.078 256.55 601.928C255.55 603.558 254.55 605.018 253.61 606.368C251.68 606.598 243.91 607.618 240.67 609.568C237.43 611.518 233.99 614.758 233.57 618.648C233.442 619.558 233.506 620.485 233.759 621.368C234.012 622.251 234.448 623.072 235.038 623.776C235.628 624.48 236.36 625.053 237.185 625.456C238.011 625.86 238.912 626.085 239.83 626.118C245.37 626.118 251.12 617.988 252.66 613.298C252.79 612.888 254.16 606.298 254.05 606.298H253.94C254.85 605.018 255.82 603.628 256.85 602.098C258.73 599.248 260.85 596.018 262.85 592.338C265.086 588.406 267.089 584.345 268.85 580.178C270.851 575.517 272.437 570.688 273.59 565.748C273.585 565.688 273.585 565.628 273.59 565.568C273.72 567.178 274.25 571.688 274.33 572.028C275.46 576.838 280.46 585.478 285.98 585.928C286.898 585.979 287.817 585.835 288.675 585.507C289.534 585.179 290.314 584.673 290.964 584.023C291.615 583.372 292.12 582.592 292.449 581.734C292.777 580.875 292.921 579.956 292.87 579.038C292.8 575.138 289.6 571.538 286.61 569.368C283.24 566.928 274.4 565.118 273.69 564.978C274.737 559.925 275.442 554.807 275.8 549.658C276.03 546.658 276.16 543.658 276.26 540.588C276.42 541.978 276.58 543.228 276.62 543.398C277.74 548.208 282.75 556.848 288.26 557.298C289.178 557.349 290.097 557.205 290.957 556.877C291.816 556.549 292.597 556.043 293.248 555.393C293.898 554.743 294.405 553.963 294.735 553.104C295.064 552.245 295.209 551.327 295.16 550.408C295.08 546.508 291.88 542.908 288.89 540.738C285.9 538.568 278.35 536.848 276.36 536.428C276.36 535.268 276.42 534.098 276.44 532.938C276.55 527.338 276.62 521.758 276.86 516.288C276.95 514.358 277.1 512.468 277.25 510.568C277.4 511.798 277.53 512.848 277.56 512.998C278.74 517.858 283.74 526.448 289.25 526.858C290.169 526.909 291.087 526.765 291.947 526.437C292.806 526.109 293.587 525.603 294.238 524.953C294.888 524.303 295.395 523.523 295.725 522.664C296.054 521.805 296.199 520.887 296.15 519.968C296.07 516.068 292.87 512.468 289.88 510.308C286.89 508.148 280.07 506.578 277.71 506.068C277.92 504.128 278.12 502.188 278.41 500.318C278.64 499.048 278.77 497.808 279.07 496.538C279.37 495.268 279.61 494.038 279.87 492.808C280.47 490.448 281.07 488.008 281.71 485.728C282.14 484.128 282.59 482.618 283.03 481.098C282.92 483.018 282.79 486.778 282.81 487.098C283.2 492.018 286.81 501.318 292.22 502.598C293.12 502.787 294.049 502.784 294.947 502.589C295.845 502.395 296.693 502.014 297.434 501.47C298.175 500.927 298.794 500.234 299.25 499.436C299.706 498.638 299.989 497.753 300.08 496.838C300.6 492.968 297.98 488.928 295.35 486.328C292.46 483.468 284.35 480.428 283.35 480.058C284.09 477.548 284.83 475.058 285.57 472.808C288.08 464.938 290.48 458.468 292.22 453.938L288.9 452.188L288.79 452.498C287.12 457.128 284.79 463.768 282.44 471.848C281.68 474.398 280.92 477.138 280.16 479.968C277.383 479.676 274.592 479.552 271.8 479.598C270.72 475.598 265.96 469.008 265.34 468.168C267.34 466.478 269.34 464.848 271.19 463.348C277.63 458.168 283.19 454.088 287.19 451.278L283.55 449.358C279.75 452.218 274.78 456.078 269.15 460.808C267.15 462.518 264.96 464.388 262.77 466.328C261.95 465.648 255.21 460.158 251.28 459.108C247.72 458.108 242.91 457.928 239.83 460.328C239.086 460.869 238.464 461.561 238.005 462.358C237.546 463.155 237.26 464.04 237.165 464.955C237.071 465.87 237.17 466.795 237.457 467.669C237.744 468.543 238.212 469.347 238.83 470.028C242.66 474.028 252.52 472.478 256.96 470.318C257.22 470.188 259.96 468.488 261.6 467.388C260.71 468.188 259.84 468.948 258.93 469.778C257.13 471.418 255.38 473.098 253.49 474.898L250.74 477.668C249.83 478.568 248.98 479.668 248.09 480.608C246.09 482.928 244.09 485.378 242.23 487.888C240.8 486.318 235.63 480.798 232.23 479.308C228.83 477.818 224.13 476.878 220.72 478.788C219.902 479.209 219.182 479.797 218.607 480.515C218.032 481.233 217.615 482.064 217.383 482.953C217.15 483.843 217.109 484.772 217.26 485.679C217.411 486.587 217.752 487.452 218.26 488.218C221.43 492.748 231.42 492.708 236.14 491.218C236.43 491.128 239.7 489.698 241.49 488.878C240.36 490.398 239.22 491.878 238.13 493.488C234.98 498.028 231.92 502.718 228.86 507.388C227.92 508.828 226.97 510.238 226.02 511.658C225.52 511.088 219.52 504.398 215.71 502.728C212.33 501.248 207.62 500.298 204.21 502.208C203.392 502.629 202.673 503.217 202.097 503.935C201.522 504.652 201.105 505.483 200.872 506.372C200.639 507.262 200.595 508.19 200.745 509.098C200.895 510.005 201.234 510.871 201.74 511.638C204.92 516.168 214.9 516.128 219.62 514.638C219.98 514.528 224.68 512.468 225.85 511.888C223.76 515.018 221.65 518.108 219.45 521.078C216.494 525.102 213.281 528.93 209.83 532.538C209.6 532.278 203.36 525.258 199.47 523.538C196.09 522.058 191.37 521.108 187.96 523.018C187.144 523.44 186.425 524.029 185.851 524.747C185.276 525.464 184.859 526.294 184.626 527.184C184.393 528.073 184.35 529.001 184.499 529.908C184.648 530.815 184.985 531.68 185.49 532.448C188.67 536.978 198.65 536.938 203.37 535.448C203.69 535.358 207.27 533.788 208.96 533.008L209.14 533.268C205.567 536.8 201.688 540.009 197.55 542.858C195.29 544.448 193.04 545.858 190.82 547.158C189.82 545.738 185.03 539.278 181.69 537.348C178.5 535.508 173.91 534.038 170.31 535.558C169.452 535.889 168.673 536.396 168.024 537.048C167.375 537.699 166.869 538.479 166.541 539.338C166.213 540.197 166.069 541.116 166.119 542.034C166.169 542.952 166.411 543.85 166.83 544.668C169.48 549.518 179.41 550.578 184.26 549.668C184.53 549.618 187.15 548.798 189.06 548.188C188.06 548.758 187.06 549.378 186.06 549.908C182.39 551.908 178.9 553.538 175.8 554.908C174.03 555.698 172.42 556.368 170.9 556.988C169.17 556.108 162.12 552.678 158.34 552.518C154.56 552.358 149.91 553.168 147.42 556.178C146.79 556.865 146.314 557.679 146.024 558.565C145.734 559.451 145.636 560.389 145.737 561.316C145.839 562.242 146.137 563.137 146.611 563.939C147.086 564.741 147.726 565.433 148.49 565.968Z" fill="#FF7C78"/>
</g>
<path d="M330.05 271.648H316.14V299.458H330.05V271.648Z" fill="white" stroke="#5F34A7" stroke-miterlimit="10"/>
<path d="M330.05 271.648H316.14V283.968H330.05V271.648Z" fill="#263238" stroke="#5F34A7" stroke-miterlimit="10"/>
<path d="M341.31 261.048H304.89V280.918H341.31V261.048Z" fill="#EFE5FE" stroke="#5F34A7" stroke-miterlimit="10"/>
<path d="M309.89 261.998V275.598" stroke="#5F34A7" stroke-miterlimit="10"/>
<path d="M316.38 268.178V274.358" stroke="#5F34A7" stroke-miterlimit="10"/>
<path d="M321.94 279.918V265.398" stroke="#5F34A7" stroke-miterlimit="10"/>
<path d="M434.225 315.299L426.88 308.251L412.776 322.948L420.121 329.997L434.225 315.299Z" fill="white" stroke="#5F34A7" stroke-miterlimit="10"/>
<path d="M434.227 315.3L426.882 308.252L420.636 314.76L427.981 321.808L434.227 315.3Z" fill="#263238" stroke="#5F34A7" stroke-miterlimit="10"/>
<path d="M445.542 315.413L426.299 296.946L416.225 307.444L435.468 325.911L445.542 315.413Z" fill="#FF7C78" stroke="#5F34A7" stroke-miterlimit="10"/>
<path d="M428.47 299.988L421.58 307.168" stroke="#5F34A7" stroke-miterlimit="10"/>
<path d="M428.76 306.538L425.63 309.808" stroke="#5F34A7" stroke-miterlimit="10"/>
<path d="M425.75 315.558L433.11 307.888" stroke="#5F34A7" stroke-miterlimit="10"/>
<path d="M430.174 548.232C489.312 489.094 489.312 393.214 430.174 334.077C371.037 274.94 275.157 274.94 216.02 334.077C156.883 393.214 156.883 489.094 216.02 548.232C275.157 607.369 371.037 607.369 430.174 548.232Z" fill="#5F34A7" stroke="#5F34A7" stroke-miterlimit="10"/>
<path d="M421.039 343.213C475.13 397.305 475.13 485.004 421.039 539.096C366.947 593.187 279.247 593.187 225.156 539.096C171.064 485.004 171.064 397.305 225.156 343.213C279.247 289.121 366.947 289.121 421.039 343.213Z" fill="white" stroke="#5F34A7"/>
<path opacity="0.2" d="M454.267 485.355L454.267 485.356C443.943 515.517 423.531 541.192 396.475 558.051C369.42 574.909 337.376 581.919 305.753 577.896C274.13 573.873 244.862 559.064 222.889 535.969C201.105 513.072 187.813 483.421 185.204 451.942C217.169 465.474 272.055 478.189 325.702 441.571C375.837 407.392 421.862 400.819 456.968 404.262C464.221 430.949 463.282 459.204 454.267 485.355Z" fill="#5F34A7" stroke="#5F34A7"/>
<path d="M306.59 471.758C297.726 482.283 287.549 491.629 276.31 499.568C287.992 474.508 306.051 452.956 328.68 437.068C322.83 449.528 315.406 461.187 306.59 471.758Z" fill="#FF7C78" stroke="#5F34A7" stroke-miterlimit="10"/>
<path d="M285.32 411.928C272.174 399.208 260.477 385.072 250.44 369.778C281.876 388.748 308.638 414.553 328.74 445.278C313.083 435.794 298.521 424.61 285.32 411.928Z" fill="#FF7C78" stroke="#5F34A7" stroke-miterlimit="10"/>
<path d="M331.015 446.794C334.124 443.685 334.124 438.645 331.015 435.537C327.907 432.428 322.867 432.428 319.758 435.537C316.649 438.645 316.649 443.685 319.758 446.794C322.867 449.902 327.907 449.902 331.015 446.794Z" fill="#5F34A7" stroke="#5F34A7" stroke-miterlimit="10"/>
<path d="M322.65 310.448V332.858" stroke="#5F34A7" stroke-miterlimit="10"/>
<path d="M322.65 553.718V576.128" stroke="#5F34A7" stroke-miterlimit="10"/>
<path d="M455.49 443.288H433.09" stroke="#5F34A7" stroke-miterlimit="10"/>
<path d="M212.22 443.288H189.81" stroke="#5F34A7" stroke-miterlimit="10"/>
<path d="M437.02 375.718L417.73 387.118" stroke="#5F34A7" stroke-miterlimit="10"/>
<path d="M227.57 499.458L208.28 510.858" stroke="#5F34A7" stroke-miterlimit="10"/>
<path d="M384.62 325.788L374.17 345.608" stroke="#5F34A7" stroke-miterlimit="10"/>
<path d="M271.14 540.968L260.69 560.788" stroke="#5F34A7" stroke-miterlimit="10"/>
<path d="M208.28 375.718L227.57 387.118" stroke="#5F34A7" stroke-miterlimit="10"/>
<path d="M417.73 499.458L437.02 510.858" stroke="#5F34A7" stroke-miterlimit="10"/>
<path d="M260.69 325.788L271.14 345.608" stroke="#5F34A7" stroke-miterlimit="10"/>
<path d="M374.17 540.968L384.62 560.788" stroke="#5F34A7" stroke-miterlimit="10"/>
<defs>
<filter id="filter0_d_41_2" x="0.676453" y="0" width="1302.32" height="733.921" filterUnits="userSpaceOnUse" color-interpolation-filters="sRGB">
<feFlood flood-opacity="0" result="BackgroundImageFix"/>
<feColorMatrix in="SourceAlpha" type="matrix" values="0 0 0 0 0 0 0 0 0 0 0 0 0 0 0 0 0 0 127 0" result="hardAlpha"/>
<feOffset dx="-4" dy="-2"/>
<feGaussianBlur stdDeviation="2"/>
<feComposite in2="hardAlpha" operator="out"/>
<feColorMatrix type="matrix" values="0 0 0 0 0 0 0 0 0 0 0 0 0 0 0 0 0 0 0.03 0"/>
<feBlend mode="normal" in2="BackgroundImageFix" result="effect1_dropShadow_41_2"/>
<feBlend mode="normal" in="SourceGraphic" in2="effect1_dropShadow_41_2" result="shape"/>
</filter>
</defs>
</svg>
