<svg width="25" height="24" viewBox="0 0 25 24" fill="none" xmlns="http://www.w3.org/2000/svg">
<path d="M22.0238 0H2.97619C1.33333 0 0 1.27182 0 2.83887V21.0077C0 22.5747 1.33333 23.8465 2.97619 23.8465H22.0238C23.6667 23.8465 25 22.5747 25 21.0077V2.83887C25 1.27182 23.6667 0 22.0238 0ZM7.7381 9.0844V19.8721H4.16667V9.0844H7.7381ZM4.16667 5.9446C4.16667 5.14972 4.88095 4.5422 5.95238 4.5422C7.02381 4.5422 7.69643 5.14972 7.7381 5.9446C7.7381 6.73949 7.07143 7.38107 5.95238 7.38107C4.88095 7.38107 4.16667 6.73949 4.16667 5.9446ZM20.8333 19.8721H17.2619C17.2619 19.8721 17.2619 14.6145 17.2619 14.1944C17.2619 13.0588 16.6667 11.9233 15.1786 11.9006H15.131C13.6905 11.9006 13.0952 13.0702 13.0952 14.1944C13.0952 14.711 13.0952 19.8721 13.0952 19.8721H9.52381V9.0844H13.0952V10.5379C13.0952 10.5379 14.244 9.0844 16.5536 9.0844C18.9167 9.0844 20.8333 10.6344 20.8333 13.7742V19.8721Z" fill="#5F34A7"/>
</svg>
