<svg width="20" height="25" viewBox="0 0 20 25" fill="none" xmlns="http://www.w3.org/2000/svg">
<path fill-rule="evenodd" clip-rule="evenodd" d="M2.12569 7.3708H18.0013C18.1288 7.36549 18.2565 7.37614 18.3816 7.40253C18.5884 7.45 18.7782 7.55723 18.9293 7.71196C19.1049 7.88759 19.2153 8.12221 19.2412 8.37446C19.246 8.46983 19.2422 8.56547 19.2298 8.66009L17.8777 23.2688V23.2946V23.3501C17.8687 23.4104 17.856 23.4701 17.8396 23.5286V23.5405C17.7679 23.771 17.6293 23.9725 17.4429 24.1171C17.2565 24.2618 17.0316 24.3424 16.7994 24.3478H3.29525C3.21499 24.3438 3.13533 24.3312 3.05754 24.3101C2.98109 24.2863 2.90718 24.2544 2.83694 24.2149C2.67117 24.1155 2.53117 23.9753 2.4291 23.8066C2.32703 23.638 2.26597 23.4458 2.25121 23.247L0.920001 8.67001C0.90481 8.561 0.900984 8.45061 0.90859 8.34074C0.935195 8.09198 1.04494 7.86094 1.21857 7.68816C1.3759 7.52866 1.57398 7.41985 1.78909 7.37476C1.90144 7.35428 2.01549 7.34564 2.1295 7.34898L2.12569 7.3708ZM1.07594 1.74551H7.06067V1.19012C7.05972 1.17228 7.05972 1.1544 7.06067 1.13656C7.07265 0.837611 7.19215 0.554333 7.39537 0.343151C7.60868 0.123529 7.89627 0.00026604 8.196 0L11.8796 0H11.9367C12.2293 0.0152795 12.5051 0.14738 12.7069 0.368936C12.9087 0.590492 13.021 0.884523 13.0207 1.19012V1.74551H19.1062H19.1804C19.3957 1.76388 19.5974 1.86302 19.7481 2.02457C19.8988 2.18612 19.9883 2.39914 20 2.62421C20 2.65991 20 2.68768 20 2.72339V4.67915C20 4.8154 19.9481 4.94607 19.8557 5.04241C19.7634 5.13876 19.6381 5.19288 19.5075 5.19288H0.494015C0.364366 5.19289 0.239941 5.13958 0.147733 5.04452C0.0555251 4.94946 0.00296975 4.82031 0.00146802 4.6851V2.68372C-0.00048934 2.66327 -0.00048934 2.64267 0.00146802 2.62223C0.0144969 2.41336 0.0942562 2.21507 0.228007 2.05902C0.361758 1.90298 0.541786 1.79818 0.739337 1.76137C0.850902 1.74611 0.963512 1.7408 1.07594 1.74551ZM9.0822 12.1987C9.10516 11.9658 9.21013 11.75 9.37681 11.5931C9.5435 11.4362 9.76004 11.3493 9.98457 11.3493C10.2091 11.3493 10.4256 11.4362 10.5923 11.5931C10.759 11.75 10.864 11.9658 10.8869 12.1987V19.5378C10.864 19.7707 10.759 19.9865 10.5923 20.1434C10.4256 20.3003 10.2091 20.3872 9.98457 20.3872C9.76004 20.3872 9.5435 20.3003 9.37681 20.1434C9.21013 19.9865 9.10516 19.7707 9.0822 19.5378V12.1987ZM13.595 12.159C13.6199 11.9213 13.7338 11.7034 13.9118 11.5526C14.0898 11.4018 14.3176 11.3304 14.5459 11.3537C14.658 11.3527 14.7692 11.3748 14.8731 11.4187C14.9769 11.4627 15.0715 11.5277 15.1512 11.6099C15.2309 11.6921 15.2942 11.79 15.3376 11.8978C15.3809 12.0057 15.4033 12.1214 15.4035 12.2384L15.0232 19.5774C14.9987 19.8154 14.885 20.0336 14.7069 20.1845C14.5288 20.3354 14.3006 20.4066 14.0723 20.3828C13.9602 20.3838 13.849 20.3617 13.7451 20.3177C13.6412 20.2738 13.5467 20.2088 13.467 20.1266C13.3873 20.0444 13.3239 19.9465 13.2806 19.8386C13.2373 19.7308 13.2149 19.615 13.2146 19.4981L13.595 12.159ZM4.75578 12.2384C4.75577 12.1215 4.77796 12.0058 4.82106 11.898C4.86416 11.7901 4.92732 11.6923 5.00688 11.61C5.08645 11.5278 5.18085 11.4628 5.28464 11.4188C5.38842 11.3748 5.49953 11.3527 5.61155 11.3537C5.83977 11.3304 6.06761 11.4018 6.24563 11.5526C6.42365 11.7034 6.53748 11.9213 6.56242 12.159L6.94276 19.4981C6.94251 19.615 6.92009 19.7308 6.87679 19.8386C6.83348 19.9465 6.77014 20.0444 6.69042 20.1266C6.61071 20.2088 6.51618 20.2738 6.41229 20.3177C6.3084 20.3617 6.1972 20.3838 6.08508 20.3828C5.85676 20.4066 5.62865 20.3354 5.45052 20.1845C5.27239 20.0336 5.15868 19.8154 5.13422 19.5774L4.75388 12.2384H4.75578Z" fill="white"/>
</svg>
