<svg width="83" height="89" viewBox="0 0 83 89" fill="none" xmlns="http://www.w3.org/2000/svg">
<path d="M48.8426 7.2V9.432H44.6906V24H42.4106V9.432H38.1626V7.2H48.8426ZM58.4529 24.312C53.2209 24.312 49.8129 20.28 49.8129 15.6C49.8129 10.944 53.2209 6.912 58.4529 6.912C63.6609 6.912 67.0689 10.944 67.0689 15.6C67.0689 20.28 63.6609 24.312 58.4529 24.312ZM58.4529 22.056C62.2209 22.056 64.7889 19.032 64.7889 15.6C64.7889 12.168 62.2209 9.168 58.4529 9.168C54.6609 9.168 52.1409 12.168 52.1409 15.6C52.1409 19.032 54.6609 22.056 58.4529 22.056ZM44.2586 36.2C49.5386 36.2 52.6826 39.92 52.6826 44.552C52.6826 49.208 49.5386 53 44.2586 53H39.8426V36.2H44.2586ZM44.2826 50.768C48.1226 50.768 50.3786 47.912 50.3786 44.552C50.3786 41.12 48.1226 38.432 44.2826 38.432H42.1226V50.768H44.2826ZM64.1013 53.312C58.8693 53.312 55.4613 49.28 55.4613 44.6C55.4613 39.944 58.8693 35.912 64.1013 35.912C69.3093 35.912 72.7173 39.944 72.7173 44.6C72.7173 49.28 69.3093 53.312 64.1013 53.312ZM64.1013 51.056C67.8693 51.056 70.4373 48.032 70.4373 44.6C70.4373 41.168 67.8693 38.168 64.1013 38.168C60.3093 38.168 57.7893 41.168 57.7893 44.6C57.7893 48.032 60.3093 51.056 64.1013 51.056ZM42.1226 79.768H48.3386V82H39.8426V65.2H42.1226V79.768ZM50.6473 82V65.2H52.9273V82H50.6473ZM61.2731 82.24C58.9931 82.24 56.9771 80.968 55.8971 79.312L57.5531 77.752C58.4891 79.096 59.9051 80.032 61.4171 80.032C63.0971 80.032 64.2011 79 64.2011 77.656C64.2011 73.624 56.3531 74.776 56.3531 69.28C56.3771 66.856 58.4171 64.96 61.2251 64.96C63.3611 64.96 65.0651 66.112 66.0971 67.36L64.6091 68.896C63.7931 67.984 62.5931 67.144 61.2731 67.144C59.7371 67.144 58.6811 68.056 58.6811 69.304C58.6571 72.952 66.5771 72.016 66.5051 77.68C66.4811 80.2 64.5371 82.24 61.2731 82.24ZM78.3504 65.2V67.432H74.1984V82H71.9184V67.432H67.6704V65.2H78.3504Z" fill="white"/>
<path d="M25.0006 4.41163C24.5794 3.98539 23.8888 3.98539 23.4676 4.41163L10.7157 17.2661L4.14845 10.5992C3.72725 10.1714 3.04126 10.1714 2.61697 10.5992L0.315895 12.9178C-0.105298 13.3409 -0.105298 14.0373 0.315895 14.4635L9.94295 24.2344C10.3641 24.6575 11.0501 24.6575 11.476 24.2344L27.3001 8.27751C27.7275 7.85126 27.7275 7.15334 27.3001 6.72554L25.0006 4.41163Z" fill="#FF7C78"/>
<path d="M25.0006 34.0783C24.5794 33.6521 23.8888 33.6521 23.4676 34.0783L10.7157 46.9328L4.14845 40.2659C3.72725 39.8381 3.04126 39.8381 2.61697 40.2659L0.315895 42.5845C-0.105298 43.0076 -0.105298 43.704 0.315895 44.1302L9.94295 53.901C10.3641 54.3242 11.0501 54.3242 11.476 53.901L27.3001 37.9442C27.7275 37.5179 27.7275 36.82 27.3001 36.3922L25.0006 34.0783Z" fill="#FF7C78"/>
<path d="M25.0006 63.745C24.5794 63.3187 23.8888 63.3187 23.4676 63.745L10.7157 76.5995L4.14845 69.9326C3.72725 69.5048 3.04126 69.5048 2.61697 69.9326L0.315895 72.2511C-0.105298 72.6743 -0.105298 73.3706 0.315895 73.7969L9.94295 83.5677C10.3641 83.9908 11.0501 83.9908 11.476 83.5677L27.3001 67.6108C27.7275 67.1846 27.7275 66.4867 27.3001 66.0589L25.0006 63.745Z" fill="#FF7C78"/>
</svg>
