<svg width="869" height="171" viewBox="0 0 869 171" fill="none" xmlns="http://www.w3.org/2000/svg">
<path d="M55.35 168V32.025H0.47V-4.72501H155.31V32.025H100.43V168H55.35ZM191.926 170.695C182.616 170.695 174.368 168.98 167.181 165.55C160.158 162.12 154.604 157.465 150.521 151.585C146.601 145.542 144.641 138.682 144.641 131.005C144.641 122.348 146.928 115.488 151.501 110.425C156.074 105.198 163.424 101.523 173.551 99.4C183.678 97.1133 197.153 95.97 213.976 95.97H223.286V92.54C223.286 86.66 221.734 82.495 218.631 80.045C215.691 77.595 210.546 76.37 203.196 76.37C196.989 76.37 190.129 77.35 182.616 79.31C175.103 81.27 167.753 84.2917 160.566 88.375L149.541 59.71C153.624 56.77 158.851 54.1567 165.221 51.87C171.591 49.5833 178.288 47.8683 185.311 46.725C192.334 45.4183 198.949 44.765 205.156 44.765C225.246 44.765 240.109 49.0933 249.746 57.75C259.546 66.4067 264.446 80.045 264.446 98.665V168H223.776V150.85C221.653 157.057 217.814 161.957 212.261 165.55C206.708 168.98 199.929 170.695 191.926 170.695ZM201.726 142.275C207.769 142.275 212.833 140.315 216.916 136.395C221.163 132.475 223.286 127.33 223.286 120.96V116.55H213.976C204.339 116.55 197.234 117.612 192.661 119.735C188.251 121.695 186.046 124.88 186.046 129.29C186.046 133.047 187.353 136.15 189.966 138.6C192.743 141.05 196.663 142.275 201.726 142.275ZM289.279 168V47.46H331.664V67.795C337.217 53.9117 349.222 46.3167 367.679 45.01L379.684 44.03L382.134 80.78L358.369 82.985C349.712 83.8017 343.424 86.2517 339.504 90.335C335.584 94.255 333.624 100.135 333.624 107.975V168H289.279ZM459.016 170.695C444.316 170.695 431.576 168.163 420.796 163.1C410.18 157.873 402.013 150.523 396.296 141.05C390.58 131.577 387.721 120.388 387.721 107.485C387.721 95.235 390.416 84.3733 395.806 74.9C401.36 65.4267 408.873 58.0767 418.346 52.85C427.983 47.46 438.926 44.765 451.176 44.765C463.263 44.765 473.716 47.2967 482.536 52.36C491.52 57.4233 498.38 64.6917 503.116 74.165C508.016 83.475 510.466 94.4183 510.466 106.995V116.55H429.371C430.841 124.39 434.108 130.025 439.171 133.455C444.235 136.885 451.258 138.6 460.241 138.6C466.448 138.6 472.9 137.702 479.596 135.905C486.456 133.945 492.5 131.168 497.726 127.575L508.506 156.24C502.3 160.65 494.705 164.162 485.721 166.775C476.738 169.388 467.836 170.695 459.016 170.695ZM453.136 72.94C446.603 72.94 441.213 74.9 436.966 78.82C432.883 82.74 430.27 88.4567 429.126 95.97H474.696C474.206 88.2933 472.083 82.5767 468.326 78.82C464.733 74.9 459.67 72.94 453.136 72.94ZM538.588 168V79.555H515.803V47.46H538.588C539.404 30.4733 544.876 17.7333 555.003 9.24C565.129 0.583327 580.483 -4.31667 601.063 -5.46L615.763 -6.19501L618.213 24.92L606.943 25.655C597.469 26.3083 590.936 28.0233 587.343 30.8C583.913 33.5767 582.198 37.905 582.198 43.785V47.46H612.578V79.555H582.198V168H538.588ZM667.571 170.695C658.261 170.695 650.012 168.98 642.826 165.55C635.802 162.12 630.249 157.465 626.166 151.585C622.246 145.542 620.286 138.682 620.286 131.005C620.286 122.348 622.572 115.488 627.146 110.425C631.719 105.198 639.069 101.523 649.196 99.4C659.322 97.1133 672.797 95.97 689.621 95.97H698.931V92.54C698.931 86.66 697.379 82.495 694.276 80.045C691.336 77.595 686.191 76.37 678.841 76.37C672.634 76.37 665.774 77.35 658.261 79.31C650.747 81.27 643.397 84.2917 636.211 88.375L625.186 59.71C629.269 56.77 634.496 54.1567 640.866 51.87C647.236 49.5833 653.932 47.8683 660.956 46.725C667.979 45.4183 674.594 44.765 680.801 44.765C700.891 44.765 715.754 49.0933 725.391 57.75C735.191 66.4067 740.091 80.045 740.091 98.665V168H699.421V150.85C697.297 157.057 693.459 161.957 687.906 165.55C682.352 168.98 675.574 170.695 667.571 170.695ZM677.371 142.275C683.414 142.275 688.477 140.315 692.561 136.395C696.807 132.475 698.931 127.33 698.931 120.96V116.55H689.621C679.984 116.55 672.879 117.612 668.306 119.735C663.896 121.695 661.691 124.88 661.691 129.29C661.691 133.047 662.997 136.15 665.611 138.6C668.387 141.05 672.307 142.275 677.371 142.275ZM812.944 170.695C801.837 170.695 791.547 169.552 782.074 167.265C772.764 164.978 764.842 161.793 758.309 157.71L768.354 129.535C774.397 132.965 781.42 135.823 789.424 138.11C797.427 140.233 805.349 141.295 813.189 141.295C819.232 141.295 823.56 140.478 826.174 138.845C828.787 137.048 830.094 134.762 830.094 131.985C830.094 129.535 829.195 127.738 827.399 126.595C825.765 125.288 823.397 124.308 820.294 123.655L793.099 119.245C782.972 117.612 775.132 113.937 769.579 108.22C764.025 102.503 761.249 95.0717 761.249 85.925C761.249 77.4317 763.617 70.1633 768.354 64.12C773.09 57.9133 779.705 53.1767 788.199 49.91C796.692 46.48 806.41 44.765 817.354 44.765C826.01 44.765 834.585 45.8267 843.079 47.95C851.572 49.91 859.004 53.1767 865.374 57.75L854.594 85.435C849.857 82.1683 843.977 79.4733 836.954 77.35C829.93 75.0633 823.642 73.92 818.089 73.92C811.392 73.92 806.655 74.9 803.879 76.86C801.102 78.6567 799.714 80.8617 799.714 83.475C799.714 87.885 802.735 90.58 808.779 91.56L835.974 96.215C846.427 97.8483 854.43 101.442 859.984 106.995C865.7 112.385 868.559 119.735 868.559 129.045C868.559 142.275 863.495 152.565 853.369 159.915C843.242 167.102 829.767 170.695 812.944 170.695Z" fill="#5F34A7" fill-opacity="0.1"/>
</svg>
